<svg width="24" height="24" viewBox="0 0 24 24" fill="none" xmlns="http://www.w3.org/2000/svg">
<path d="M10.6 5.6C10.6 5.17565 10.7686 4.76869 11.0686 4.46863C11.3687 4.16857 11.7757 4 12.2 4C12.6243 4 13.0313 4.16857 13.3314 4.46863C13.6314 4.76869 13.8 5.17565 13.8 5.6C13.8 6.02435 13.6314 6.43131 13.3314 6.73137C13.0313 7.03143 12.6243 7.2 12.2 7.2C11.7757 7.2 11.3687 7.03143 11.0686 6.73137C10.7686 6.43131 10.6 6.02435 10.6 5.6ZM9 10.4C9 9.81 9.47667 9.33333 10.0667 9.33333H12.2C12.79 9.33333 13.2667 9.81 13.2667 10.4V17.8667H14.3333C14.9233 17.8667 15.4 18.3433 15.4 18.9333C15.4 19.5233 14.9233 20 14.3333 20H10.0667C9.47667 20 9 19.5233 9 18.9333C9 18.3433 9.47667 17.8667 10.0667 17.8667H11.1333V11.4667H10.0667C9.47667 11.4667 9 10.99 9 10.4Z" fill="#944E0E"/>
</svg>
