<svg width="24" height="24" viewBox="0 0 24 24" fill="none" xmlns="http://www.w3.org/2000/svg">
<path fill-rule="evenodd" clip-rule="evenodd" d="M12.0661 2.75C12.7565 2.75 13.3161 3.30964 13.3161 4V14.5785C13.3161 15.2689 12.7565 15.8285 12.0661 15.8285C11.3758 15.8285 10.8161 15.2689 10.8161 14.5785V4C10.8161 3.30964 11.3758 2.75 12.0661 2.75ZM10.75 19.8678C10.75 19.1774 11.3096 18.6178 12 18.6178H12.1322C12.8226 18.6178 13.3822 19.1774 13.3822 19.8678V20C13.3822 20.6904 12.8226 21.25 12.1322 21.25H12C11.3096 21.25 10.75 20.6904 10.75 20V19.8678Z" fill="#944E0E"/>
</svg>
