<svg width="80" height="80" viewBox="0 0 80 80" fill="none" xmlns="http://www.w3.org/2000/svg">
<rect width="80" height="80" rx="40" fill="#DEFEEE"/>
<path fill-rule="evenodd" clip-rule="evenodd" d="M46.1044 26.2891C43.1498 24.9727 39.8487 24.6465 36.6936 25.3594C33.5385 26.0722 30.6984 27.7859 28.5968 30.2448C26.4952 32.7036 25.2447 35.776 25.0319 39.0036C24.819 42.2312 25.6553 45.4412 27.4158 48.1547C29.1763 50.8683 31.7669 52.94 34.8011 54.061C37.8352 55.182 41.1505 55.2921 44.2524 54.375C47.3543 53.4579 50.0766 51.5626 52.0134 48.9719C53.9501 46.3812 54.9975 43.2338 54.9994 39.9991V38.4668C54.9994 37.5463 55.7456 36.8001 56.666 36.8001C57.5865 36.8001 58.3327 37.5463 58.3327 38.4668V40.0001C58.3304 43.9535 57.0503 47.8013 54.6831 50.9677C52.316 54.1342 48.9887 56.4506 45.1975 57.5715C41.4063 58.6925 37.3543 58.5579 33.6459 57.1878C29.9374 55.8177 26.7712 53.2856 24.6194 49.969C22.4677 46.6524 21.4456 42.7292 21.7058 38.7843C21.9659 34.8394 23.4942 31.0843 26.0629 28.079C28.6315 25.0737 32.1028 22.9793 35.959 22.108C39.8153 21.2367 43.8498 21.6353 47.461 23.2444C48.3018 23.619 48.6797 24.6043 48.3051 25.4451C47.9304 26.2859 46.9451 26.6638 46.1044 26.2891ZM57.8439 25.4877C58.4951 26.1382 58.4957 27.1935 57.8451 27.8447L41.1785 44.528C40.866 44.8408 40.4419 45.0167 39.9998 45.0168C39.5576 45.0169 39.1335 44.8413 38.8208 44.5286L33.8208 39.5286C33.17 38.8777 33.17 37.8225 33.8208 37.1716C34.4717 36.5207 35.527 36.5207 36.1779 37.1716L39.9988 40.9925L55.4869 25.4888C56.1375 24.8376 57.1927 24.8371 57.8439 25.4877Z" fill="#05AC5C"/>
</svg>
