<svg width="96" height="96" viewBox="0 0 96 96" fill="none" xmlns="http://www.w3.org/2000/svg">
<rect width="96" height="96" rx="48" fill="#DEFEEE"/>
<path fill-rule="evenodd" clip-rule="evenodd" d="M55.326 31.5466C51.7805 29.9668 47.8193 29.5754 44.0331 30.4308C40.247 31.2863 36.8388 33.3427 34.3169 36.2933C31.795 39.244 30.2944 42.9308 30.039 46.804C29.7836 50.6771 30.7871 54.529 32.8997 57.7853C35.0124 61.0416 38.121 63.5277 41.762 64.8728C45.4031 66.218 49.3814 66.3502 53.1036 65.2496C56.8259 64.149 60.0927 61.8747 62.4168 58.7659C64.7409 55.657 65.9978 51.8801 66 47.9986V46.1597C66 45.0552 66.8954 44.1597 68 44.1597C69.1046 44.1597 70 45.0552 70 46.1597V47.9997C69.9973 52.7439 68.4611 57.3612 65.6205 61.1609C62.78 64.9606 58.7872 67.7403 54.2378 69.0855C49.6883 70.4306 44.826 70.2691 40.3758 68.625C35.9257 66.9809 32.1262 63.9423 29.5441 59.9624C26.962 55.9825 25.7355 51.2746 26.0477 46.5408C26.3598 41.8069 28.1939 37.3008 31.2762 33.6944C34.3586 30.0881 38.5241 27.5747 43.1516 26.5292C47.7791 25.4837 52.6206 25.962 56.954 27.8929C57.963 28.3424 58.4164 29.5248 57.9669 30.5337C57.5173 31.5427 56.335 31.9961 55.326 31.5466ZM69.4135 30.5848C70.195 31.3655 70.1956 32.6318 69.4149 33.4132L49.4149 53.4332C49.0399 53.8086 48.5311 54.0196 48.0005 54.0197C47.4699 54.0199 46.961 53.8091 46.5858 53.4339L40.5858 47.4339C39.8048 46.6529 39.8048 45.3866 40.5858 44.6055C41.3668 43.8245 42.6332 43.8245 43.4142 44.6055L47.9993 49.1906L66.5851 30.5862C67.3657 29.8048 68.6321 29.8042 69.4135 30.5848Z" fill="#05AC5C"/>
</svg>
