<svg width="800" height="300" fill="none" xmlns="http://www.w3.org/2000/svg"><rect width="800" height="300" rx="32" fill="#fff"/><path d="M334.409 149.112h-5.864l.591-26.379-6.954 26.379h-5.409l-6.955-26.379c.394 16.888.591 25.681.591 26.379h-5.864v-32.11h8.728l6.272 23.832 6.182-23.832h8.682v32.11ZM366.887 149.112h-6.409l-1.863-6.277h-12.046l-1.863 6.277h-6.455l10.864-32.11h6.818l10.954 32.11Zm-9.863-11.553-4.409-14.781-4.455 14.781h8.864ZM400.682 149.112h-5.863l.59-26.379-6.954 26.379h-5.409l-6.955-26.379c.394 16.888.591 25.681.591 26.379h-5.863v-32.11h8.727l6.273 23.832L392 117.002h8.682v32.11ZM433.161 149.112h-6.41l-1.863-6.277h-12.046l-1.863 6.277h-6.455l10.864-32.11h6.818l10.955 32.11Zm-9.864-11.553-4.409-14.781-4.455 14.781h8.864ZM321.182 173.58h-5c-1.182 0-2.167.318-2.955.955-.757.637-1.318 1.456-1.682 2.456a26.259 26.259 0 0 0-.909 3.093 65.686 65.686 0 0 1-.727 3.138c-.273 1.031-.606 1.789-1 2.274H302c.636-.606 1.136-1.455 1.5-2.547.394-1.091.697-2.198.909-3.32.212-1.152.485-2.274.818-3.366a7.386 7.386 0 0 1 1.682-2.956c.788-.879 1.818-1.47 3.091-1.774-3.879-.697-5.818-3.35-5.818-7.959 0-3.456.954-6.018 2.863-7.686 1.94-1.667 4.576-2.501 7.91-2.501h12.227v32.109h-6V173.58Zm0-15.009H315.5c-3.485 0-5.227 1.653-5.227 4.958 0 1.819.439 3.123 1.318 3.911.909.758 2.273 1.137 4.091 1.137h5.5v-10.006ZM347.563 153.387h25.454v32.109h-6v-26.652h-13.454v26.652h-6v-32.109ZM378.823 169.487c0-4.791 1.424-8.808 4.273-12.053 2.879-3.244 6.591-4.866 11.136-4.866 3.152 0 5.909.804 8.273 2.411 2.394 1.576 4.167 3.623 5.318 6.139 1.182 2.487 1.773 5.2 1.773 8.141a21.35 21.35 0 0 1-.5 4.594c-.303 1.516-.849 3.032-1.636 4.548a16.144 16.144 0 0 1-2.91 4.002c-1.151 1.153-2.636 2.092-4.454 2.82-1.788.728-3.788 1.092-6 1.092-4.576 0-8.273-1.638-11.091-4.912-2.788-3.275-4.182-7.247-4.182-11.916Zm6.182-.228a15.4 15.4 0 0 0 .5 3.912 14.426 14.426 0 0 0 1.545 3.684c.697 1.152 1.667 2.092 2.91 2.82 1.242.697 2.681 1.046 4.318 1.046 2.545 0 4.727-.956 6.545-2.866 1.818-1.94 2.727-4.639 2.727-8.095 0-2.001-.333-3.866-1-5.594a9.673 9.673 0 0 0-3.136-4.321c-1.454-1.183-3.197-1.774-5.227-1.774-2.697 0-4.909 1.001-6.637 3.002-1.697 2.001-2.545 4.73-2.545 8.186ZM415.345 153.387h14.364c3.182 0 5.591.758 7.227 2.274 1.667 1.485 2.5 3.35 2.5 5.594 0 .97-.167 1.91-.5 2.82-.333.879-.924 1.698-1.773 2.456-.818.727-1.833 1.182-3.045 1.364 1.788.334 3.364 1.213 4.727 2.638 1.394 1.395 2.091 3.35 2.091 5.867 0 2.547-.864 4.7-2.591 6.458-1.697 1.759-4.439 2.638-8.227 2.638h-14.773v-32.109Zm5.955 4.912v8.004h6.045c1.606 0 2.985-.303 4.137-.909 1.181-.637 1.772-1.683 1.772-3.139 0-1.455-.575-2.471-1.727-3.047-1.121-.606-2.455-.909-4-.909H421.3Zm0 12.507v9.505h7.909c1.909 0 3.318-.409 4.227-1.228.909-.849 1.364-1.925 1.364-3.229 0-3.365-2.273-5.048-6.818-5.048H421.3ZM471.912 185.496h-6.409l-1.863-6.276h-12.046l-1.864 6.276h-6.454l10.864-32.109h6.818l10.954 32.109Zm-9.863-11.552-4.409-14.781-4.455 14.781h8.864ZM476.116 153.387h12.455c3.363 0 6.106.97 8.227 2.91 2.121 1.941 3.182 4.533 3.182 7.778 0 3.123-.97 5.654-2.909 7.595-1.909 1.94-4.849 2.911-8.818 2.911h-6.137v10.915h-6v-32.109Zm6 5.139v11.143h5.273c4.273 0 6.409-1.926 6.409-5.776 0-1.001-.167-1.85-.5-2.547-.303-.698-.682-1.228-1.136-1.592-.425-.364-1-.637-1.728-.819-.727-.212-1.348-.333-1.863-.364a31.307 31.307 0 0 0-1.864-.045h-4.591Z" fill="#212121"/><path fill-rule="evenodd" clip-rule="evenodd" d="M457.993 118.91a4.747 4.747 0 0 0-4.641 3.747 1.957 1.957 0 0 1-.916 1.269 1.947 1.947 0 0 1-1.551.189 4.752 4.752 0 0 0-5.951 3.317 4.757 4.757 0 0 0 3.465 5.869 1.955 1.955 0 0 1 1.491 1.9v3.304l16.207-.013v-3.291c0-.883.591-1.657 1.442-1.887a4.775 4.775 0 0 0 1.661-.825 4.767 4.767 0 0 0 1.685-5.01 4.75 4.75 0 0 0-2.222-2.883 4.747 4.747 0 0 0-3.607-.467 1.949 1.949 0 0 1-2.418-1.473 4.757 4.757 0 0 0-4.645-3.746Zm0-3.909a8.65 8.65 0 0 0-7.855 5.028 8.664 8.664 0 0 0-7.436 3.307 8.662 8.662 0 0 0-1.76 6.504 8.671 8.671 0 0 0 5.043 6.749v10.568c0 1.079.874 1.954 1.953 1.954h20.111a1.953 1.953 0 0 0 1.952-1.954v-10.602a8.668 8.668 0 0 0 4.653-10.097 8.668 8.668 0 0 0-7.248-6.332 8.698 8.698 0 0 0-1.538-.061 8.655 8.655 0 0 0-7.875-5.064Zm8.104 27.401-16.207.012v2.788h16.207v-2.8Z" fill="#212121"/></svg>